<?xml version="1.0" encoding="utf-8" ?><svg xmlns="http://www.w3.org/2000/svg" xmlns:xlink="http://www.w3.org/1999/xlink" width="933" height="277" viewBox="0 0 933 277"><path fill="#008543" d="M187.799 116.465C196.867 116.96 208.693 116.634 217.963 116.644C218.153 126.49 217.901 137.367 217.912 147.308L218.128 217.508L58.7894 217.486L58.6654 116.664C68.868 116.585 79.071 116.574 89.2738 116.631C88.5824 120.488 85.0307 131.624 83.7567 135.99C79.8816 149.095 76.1239 162.236 72.4841 175.409L97.5545 175.489C107.75 175.515 122.464 176.829 129.182 167.99C134.973 160.37 134.712 151.572 127.278 145.512C132.116 142.213 136.132 137.595 136.376 131.53C136.784 121.411 128.919 118.399 120.841 116.461C131.302 116.982 144.251 116.616 154.891 116.598C149.718 136.013 143.235 156.07 137.76 175.582C142.144 175.45 151.01 175.269 155.228 175.727C157.181 168.162 159.281 160.636 161.526 153.153C182.499 152.961 178.184 156.994 178.081 175.935C183.615 176.156 189.143 175.83 194.72 176.169C194.565 173.813 194.558 171.038 194.49 168.645C193.636 161.073 196.247 153.72 189.203 149.221C204.887 140.34 207.785 121.916 187.799 116.465Z"/><path fill="#FEC730" d="M58.4542 58.2438C76.5832 58.6351 95.579 58.355 113.759 58.3551L218.034 58.3956C218.141 71.428 218.157 84.461 218.08 97.4937C165.353 98.541 111.226 96.5927 58.51 97.9581L58.4542 58.2438Z"/><path fill="#008543" d="M577.696 115.459C608.328 114.098 609.868 140.48 595.924 160.532C588.97 170.531 578.776 175.422 566.858 177.278C534.613 178.566 533.364 151.996 548.947 130.792C555.547 121.81 566.628 116.565 577.696 115.459ZM569.963 162.663C584.75 158.036 591.947 128.023 574.788 129.913C569.956 131.029 566.481 133.68 564.015 137.994C559.05 146.677 553.802 164.043 569.963 162.663Z"/><path fill="#008543" d="M624.942 117.056C630.53 117.119 636.087 116.853 641.884 117.033C651.824 117.343 676.314 114.03 673.122 130.749C671.886 137.221 666.746 141.134 661.591 144.636C674.287 149.421 666.062 165.263 657.943 171.048C647.223 177.758 622.081 175.641 608.343 175.787C613.555 156.338 619.442 136.467 624.942 117.056ZM634.519 151.244C633.576 154.835 632.581 158.411 631.534 161.973C636.918 162.136 640.855 162.435 646.141 161.187C648.056 159.783 649.863 157.959 650.284 155.524C648.942 150.066 639.055 151.217 634.519 151.244ZM637.597 140.416C641.013 140.437 647.389 140.761 650.322 139.529C652.635 137.8 654.868 136.017 653.863 132.984C650.858 129.995 645.525 130.505 641.547 130.515L640.77 130.518C639.783 131.798 638.186 138.379 637.597 140.416Z"/><path fill="#008543" d="M692.454 117.084C704.229 117.039 717.293 116.47 728.915 117.394C750.927 119.145 743.899 141.443 727.872 148.202C739.405 152.748 733.304 161.799 731.071 170.631C730.784 171.769 732.513 173.387 732.237 175.188C730.516 176.567 716.954 175.592 713.969 175.741C712.956 175.792 712.887 175.734 712.247 175.06C713.558 160.25 722.514 155.08 700.868 155.276C699.382 161.664 696.937 169.174 695.225 175.779L676.123 175.764C677.172 170.077 679.885 161.249 681.505 155.46L692.454 117.084ZM704.642 142.401C709.315 142.355 715.376 142.728 719.606 141.08C721.734 139.297 725.443 135.467 722.459 132.87C719.044 129.899 712.083 130.555 707.843 130.609C706.793 134.406 705.538 138.602 704.642 142.401Z"/><path fill="#008543" d="M482.785 117.013C492.98 117.181 518.677 115.475 526.528 119.092C529.135 120.293 531.271 122.253 532.245 125.001C534.346 130.933 530.586 140.009 525.971 143.886C524.267 145.318 519.624 146.771 518.804 148.495C529.835 151.586 522.523 163.907 521.62 171.122C521.351 173.273 522.344 173.138 522.55 174.979L521.923 175.472C519.357 176.063 505.287 176.145 502.784 175.484L502.551 174.372C505.356 158.478 511.147 155.293 491.061 155.331C490.016 160.816 487.175 170.056 485.604 175.719C479.749 175.983 472.221 175.772 466.239 175.758C471.415 156.191 477.467 136.622 482.785 117.013ZM495.125 142.16C499.916 142.262 505.196 142.771 509.646 141.226C514.996 137.42 515.192 131.433 507.841 130.739C504.71 130.444 501.368 130.632 498.214 130.686C497.337 134.645 496.073 138.301 495.125 142.16Z"/><path fill="#008543" d="M291.218 117.053C300.654 117.067 310.051 116.977 319.539 116.994C328.609 117.01 339.99 119.55 339.919 130.834C339.876 137.695 336.329 144.629 331.547 149.456C323.826 157.25 314.412 157.634 304.204 157.561L298.964 157.555L293.765 175.79L274.333 175.787C280.347 157.072 285.209 136.266 291.218 117.053ZM303.084 143.539C307.446 143.608 312.494 144.147 316.414 142.397C326.415 133.954 318.182 130.637 309.304 130.644L306.406 130.661C305.379 134.974 304.271 139.268 303.084 143.539Z"/><path fill="#008543" d="M356.222 117.068C360.799 116.78 367.992 117.007 372.73 117.013L404.536 117.058L400.695 130.715L371.993 130.686L369.59 138.994L393.961 139.045C392.638 143.687 391.242 148.308 389.773 152.906L365.623 152.726L364.497 156.943L363.068 162.009L392.851 162.111L388.881 175.775L339.874 175.786C340.84 170.743 343.444 162.906 344.887 157.636C348.589 144.117 352.777 130.668 356.222 117.068Z"/><path fill="#008543" d="M851.376 115.482C866.084 115.184 874.381 117.975 874.567 133.977C868.736 134.005 862.376 134.308 856.59 133.706C856.478 133.694 855.396 131.267 854.799 130.766C851.847 128.282 846.021 128.142 843.19 130.871C839.503 135.899 849.405 137.82 852.336 138.552C857.396 139.815 862.129 141.094 866.143 144.52C873.386 150.701 869.203 160.967 863.862 166.85C856.762 174.672 847.454 176.845 837.462 177.353C836.504 177.355 835.546 177.342 834.589 177.314C821.492 176.899 814.606 170.861 815.031 157.713C821.049 157.529 827.363 157.628 833.405 157.632C836.502 167.825 849.831 163.788 850.245 158.465C848.563 151.584 822.618 153.838 822.784 140.276C822.986 123.716 836.693 116.685 851.376 115.482Z"/><path fill="#008543" d="M777.938 117.089L797.656 117.046C797.736 124.07 798.807 133.978 799.389 141.212L801.936 175.847C795.512 175.746 789.087 175.735 782.662 175.816L782.674 168.106C776.324 167.983 769.973 167.972 763.623 168.074C763.105 168.731 759.735 174.667 759.077 175.79L740.036 175.797L764.451 137.697C768.412 131.528 773.704 122.774 777.938 117.089ZM771.059 155.826L782.721 155.699C782.653 151.97 783.025 137.714 782.419 135.188C780.903 137.79 770.861 154.537 771.059 155.826Z"/><path fill="#008543" d="M416.618 117.026L470.795 117.06C469.181 122.137 467.773 127.399 466.337 132.539L448.706 132.535C447.198 140.12 442.906 153.679 440.666 161.391C439.234 165.642 437.793 171.334 436.536 175.746C430.226 175.856 423.707 175.796 417.379 175.819C418.166 171.77 420.306 164.964 421.467 160.839C424.098 151.404 426.788 141.985 429.535 132.583L412.19 132.547C413.599 127.398 414.979 122.093 416.618 117.026Z"/><path fill="#008543" d="M168.323 128.489C173.205 128.531 188.039 126.054 186.971 134.323C186.577 137.382 184.961 138.861 182.666 140.64C178.238 142.118 169.771 141.587 164.798 141.509C165.906 137.151 167.081 132.811 168.323 128.489Z"/><path fill="#008543" d="M101.735 150.579C104.958 150.493 111.049 150.048 113.362 152.2C119.58 157.986 111.975 162.383 106.915 163.177C102.509 163.348 97.6091 163.235 93.1645 163.222L96.6732 150.812L101.735 150.579Z"/><path fill="#008543" d="M102.847 128.37C106.906 128.338 111.274 127.918 115.278 128.299C122.539 128.989 123.323 134.413 117.674 138.53C112.942 139.682 105.348 139.314 100.248 139.266C100.784 136.134 102.055 131.561 102.847 128.37Z"/></svg>